<svg width="90" height="90" viewBox="0 0 90 90" fill="none" xmlns="http://www.w3.org/2000/svg">
<path d="M30.9375 84.7969V65.3906L16.4531 76.0781C20.5313 79.875 25.4531 82.8281 30.9375 84.7969M59.0625 84.7969C64.5469 82.8281 69.4687 79.875 73.5469 76.0781L59.0625 65.25V84.7969M5.20312 59.0625C5.625 60.4688 6.1875 61.7344 6.89063 63.1406L12.375 59.0625H5.20312ZM77.625 59.0625L83.1094 63.1406C83.6719 61.875 84.2344 60.4688 84.7969 59.0625H77.625Z" fill="#2A5F9E"/>
<path d="M33.0469 53.4375H3.65625C4.07813 55.4063 4.64063 57.2344 5.20313 59.0625H12.375L6.89063 63.1406C8.01563 65.5313 9.28125 67.6406 10.8281 69.75L25.3125 59.0625H30.9375V61.875L14.4844 73.9687L16.4531 75.9375L30.9375 65.3906V84.7969C32.7656 85.5 34.5937 85.9219 36.5625 86.3438V53.4375H33.0469ZM86.3438 53.4375H53.4375V86.3438C55.4063 85.9219 57.2344 85.3594 59.0625 84.7969V65.3906L73.5469 75.9375C75.5156 74.1094 77.2031 72.1406 78.8906 70.0313L63.8438 59.0625H73.4063L81.9844 65.3906C82.4063 64.6875 82.8281 63.8438 83.1094 63.1406L77.625 59.0625H84.7969C85.3594 57.2344 85.9219 55.4063 86.3438 53.4375" fill="white"/>
<path d="M10.8281 69.75C11.9531 71.2969 13.0781 72.7031 14.3438 74.1094L30.9375 62.0156V59.2031H25.3125L10.8281 69.75ZM63.9844 59.0625L79.0312 70.0312C79.5938 69.3281 80.0156 68.625 80.5781 67.9219C80.7187 67.7812 80.7187 67.6406 80.8594 67.6406C81.2812 66.9375 81.8437 66.0938 82.2656 65.3906L73.4062 59.0625H63.9844Z" fill="#ED4C5C"/>
<path d="M59.0625 5.20312V24.6094L73.5469 13.9219C69.4687 10.125 64.5469 7.17187 59.0625 5.20312ZM30.9375 5.20312C25.4531 7.17187 20.5313 10.125 16.4531 13.9219L30.9375 24.75V5.20312ZM84.7969 30.9375C84.375 29.5312 83.8125 28.2656 83.1094 26.8594L77.625 30.9375H84.7969M12.375 30.9375L6.89063 26.8594C6.32813 28.2656 5.76563 29.5312 5.20312 30.9375H12.375Z" fill="#2A5F9E"/>
<path d="M56.9531 36.5625H86.2031C85.7813 34.5937 85.2188 32.7656 84.6563 30.9375H77.4844L82.9688 26.8594C81.8438 24.4687 80.5781 22.3594 79.0313 20.25L64.6875 30.9375H59.0625V28.125L75.5156 16.0312L73.5469 14.0625L59.0625 24.6094V5.20313C57.2344 4.5 55.4063 4.07813 53.4375 3.65625V36.5625H56.9531ZM3.65625 36.5625H36.5625V3.65625C34.5937 4.07813 32.7656 4.64063 30.9375 5.20313V24.6094L16.4531 14.0625C14.4844 15.8906 12.7969 17.8594 11.1094 19.9688L26.1562 30.9375H16.5938L8.01562 24.6094C7.59375 25.3125 7.17188 26.1562 6.89063 26.8594L12.375 30.9375H5.20313C4.64063 32.7656 4.07813 34.5937 3.65625 36.5625Z" fill="white"/>
<path d="M79.1719 20.25C78.0469 18.7031 76.9219 17.2969 75.6563 15.8906L59.0625 27.9844V30.7969H64.6875L79.1719 20.25M26.0156 30.9375L11.1094 19.9687C10.5469 20.6719 10.125 21.375 9.5625 22.0781C9.42188 22.2187 9.42188 22.3594 9.28125 22.3594C8.85937 23.0625 8.29688 23.9062 7.875 24.6094L16.4531 30.9375H26.0156Z" fill="#ED4C5C"/>
<path d="M86.3438 36.5625H53.4375V3.65625C50.7656 3.09375 47.9531 2.8125 45 2.8125C42.0469 2.8125 39.2344 3.09375 36.5625 3.65625V36.5625H3.65625C3.09375 39.2344 2.8125 42.0469 2.8125 45C2.8125 47.9531 3.09375 50.7656 3.65625 53.4375H36.5625V86.3438C39.2344 86.9063 42.0469 87.1875 45 87.1875C47.9531 87.1875 50.7656 86.9063 53.4375 86.3438V53.4375H86.3438C86.9063 50.7656 87.1875 47.9531 87.1875 45C87.1875 42.0469 86.9063 39.2344 86.3438 36.5625Z" fill="#ED4C5C"/>
</svg>
