<svg width="90" height="90" viewBox="0 0 90 90" fill="none" xmlns="http://www.w3.org/2000/svg">
<path fill-rule="evenodd" clip-rule="evenodd" d="M45 0C20.1375 0 0 20.6469 0 46.1382C0 66.5544 12.8812 83.7985 30.7687 89.9119C33.0187 90.3156 33.8625 88.9314 33.8625 87.7203C33.8625 86.6245 33.8063 82.9911 33.8063 79.127C22.5 81.2609 19.575 76.3011 18.675 73.7058C18.1688 72.3793 15.975 68.2846 14.0625 67.1888C12.4875 66.3237 10.2375 64.1898 14.0062 64.1321C17.55 64.0745 20.0812 67.4771 20.925 68.8613C24.975 75.8397 31.4437 73.8788 34.0312 72.6677C34.425 69.6687 35.6063 67.6502 36.9 66.4967C26.8875 65.3433 16.425 61.3638 16.425 43.716C16.425 38.6984 18.1688 34.546 21.0375 31.3163C20.5875 30.1629 19.0125 25.4337 21.4875 19.0897C21.4875 19.0897 25.2562 17.8786 33.8625 23.8189C37.4625 22.7807 41.2875 22.2617 45.1125 22.2617C48.9375 22.2617 52.7625 22.7807 56.3625 23.8189C64.9687 17.8209 68.7375 19.0897 68.7375 19.0897C71.2125 25.4337 69.6375 30.1629 69.1875 31.3163C72.0563 34.546 73.8 38.6408 73.8 43.716C73.8 61.4215 63.2812 65.3433 53.2687 66.4967C54.9 67.9385 56.3063 70.7068 56.3063 75.0323C56.3063 81.2033 56.25 86.1631 56.25 87.7203C56.25 88.9314 57.0937 90.3732 59.3437 89.9119C68.2769 86.8195 76.0394 80.9329 81.5387 73.0805C87.0381 65.2281 89.9973 55.8053 90 46.1382C90 20.6469 69.8625 0 45 0Z" fill="black"/>
</svg>
