<svg width="90" height="90" viewBox="0 0 90 90" fill="none" xmlns="http://www.w3.org/2000/svg">
<g clip-path="url(#clip0_5_18)">
<path d="M89.9859 22.9697C89.9859 20.2022 89.7525 17.4459 89.0916 14.7516C87.9047 9.84375 85.1062 6.09469 80.9184 3.34125C78.7641 1.935 76.3931 1.07156 73.8731 0.615937C71.9379 0.277362 69.9791 0.0911653 68.0147 0.0590625C67.8684 0.045 67.7081 0.0140625 67.545 0H22.4578C21.8869 0.045 21.3159 0.073125 20.745 0.10125C17.9466 0.261562 15.165 0.554063 12.5269 1.60875C7.51781 3.58594 3.89812 7.0425 1.78875 12.0234C1.0575 13.7081 0.689059 15.4941 0.427496 17.3109C0.208121 18.7763 0.0899963 20.2556 0.0478088 21.735C0.0478088 21.8531 0.0196838 21.9684 0.0196838 22.0866V67.9219L0.106871 69.5053C0.298121 72.5681 0.691871 75.6 1.98281 78.4125C4.41562 83.7309 8.50218 87.2297 14.1131 88.9144C15.6797 89.3981 17.3222 89.6175 18.9619 89.7638C21.0431 89.9691 23.1216 89.9972 25.2028 89.9972H66.5691C68.5322 89.9972 70.4953 89.865 72.4584 89.6175C75.5494 89.2209 78.4491 88.3125 81.0731 86.5856C84.1792 84.5735 86.6283 81.6961 88.1184 78.3084C88.8216 76.725 89.2181 75.0431 89.5106 73.3416C89.9353 70.8075 90.0225 68.2425 90.0225 65.6803C90.0084 51.4406 90.0225 37.2038 90.0084 22.9641L89.9859 22.9697ZM65.9025 37.9238V59.3409C65.9025 60.9075 65.6831 62.4459 64.98 63.8663C63.8972 66.0769 62.1394 67.4691 59.7797 68.1441C58.4725 68.5187 57.125 68.7349 55.7662 68.7881C54.0576 68.8891 52.3714 68.3583 51.0287 67.2967C49.686 66.2351 48.7806 64.7168 48.4847 63.0309C48.2136 61.5141 48.4479 59.9502 49.1516 58.5794C49.8553 57.2086 50.9895 56.1067 52.38 55.4428C53.5809 54.8578 54.8859 54.5062 56.1881 54.2419C57.6084 53.9353 59.0287 53.6569 60.435 53.3334C61.4756 53.1 62.1478 52.47 62.3531 51.3984C62.4122 51.165 62.4262 50.9147 62.4262 50.6813V30.2625C62.4212 30.0295 62.3872 29.798 62.325 29.5734C62.1787 29.0025 61.7681 28.665 61.1831 28.6931C60.5812 28.7212 59.9962 28.8253 59.4112 28.9434C56.5537 29.5003 53.6991 30.0712 50.8556 30.6562L36.9844 33.4547C36.9253 33.4688 36.8522 33.4997 36.7931 33.4997C35.7525 33.7922 35.3869 34.2619 35.3419 35.3447C35.3278 35.505 35.3419 35.6681 35.3419 35.8284C35.3278 45.585 35.3419 55.3416 35.3278 65.0953C35.3278 66.6788 35.1506 68.2313 34.5234 69.6938C33.4828 72.0956 31.6378 73.6059 29.1487 74.3231C27.8329 74.7061 26.4741 74.9225 25.1044 74.9672C21.5156 75.0994 18.5259 72.7116 17.9128 69.1819C17.3841 66.1359 18.7762 62.8537 22.2328 61.3884C23.58 60.8316 24.9722 60.525 26.3925 60.2325L29.6156 59.5744C31.05 59.2678 31.7981 58.3594 31.8712 56.8941V23.0259C31.8712 22.5563 31.9303 22.0894 32.0316 21.6337C32.2959 20.565 33.0581 19.9491 34.0819 19.6988C35.0353 19.4484 36.0169 19.2741 36.9816 19.0688C39.735 18.5119 42.4744 17.955 45.2278 17.4122L53.7384 15.6825C56.2584 15.1847 58.7616 14.6728 61.2816 14.175C62.1028 14.0147 62.9381 13.8375 63.7706 13.7784C64.9266 13.6772 65.7337 14.4084 65.8519 15.5812C65.88 15.8597 65.8969 16.1381 65.8969 16.4166V37.9069L65.9025 37.9238Z" fill="black"/>
</g>
<defs>
<clipPath id="clip0_5_18">
<rect width="90" height="90" fill="white"/>
</clipPath>
</defs>
</svg>
