<svg width="90" height="90" viewBox="0 0 90 90" fill="none" xmlns="http://www.w3.org/2000/svg">
<path d="M53.186 18.6755C54.3678 19.4381 55.7699 19.7853 57.171 19.6621C58.5721 19.539 59.8922 18.9526 60.9229 17.9956C61.9536 17.0386 62.6361 15.7655 62.8626 14.3774C63.0891 12.9892 62.8467 11.5652 62.1736 10.3302C61.5006 9.09521 60.4353 8.11962 59.1461 7.55752C57.8568 6.99542 56.417 6.87885 55.0541 7.22622C53.6912 7.5736 52.4828 8.36512 51.6199 9.47577C50.757 10.5864 50.2887 11.9529 50.2889 13.3594C50.2863 14.4175 50.5503 15.4593 51.0567 16.3884C51.563 17.3176 52.2953 18.1042 53.186 18.6755V18.6755ZM73.8105 69.7301L67.0451 62.9648L65.0456 60.9653L51.9286 57.535L33.0773 37.9688H43.6066L50.625 28.4651V49.1769L56.2639 55.0723L61.875 56.1943V23.0825H47.6074L40.7682 32.3438H27.6578L21.7129 26.1738L17.6621 30.0762L37.5038 50.6704L15.0634 69.5675L15.2003 69.7301H2.8125V75.3551H43.5938V69.7301H23.6029L41.4153 54.73L47.5007 61.046L51.1247 74.8867L61.6073 85.369C61.999 85.7608 62.4641 86.0716 62.976 86.2836C63.4878 86.4956 64.0364 86.6048 64.5905 86.6048C65.1445 86.6048 65.6931 86.4956 66.205 86.2836C66.7168 86.0716 67.1819 85.7608 67.5737 85.369L75.5286 77.4141L75.5462 77.3965C76.1651 76.7576 76.9048 76.248 77.7224 75.8976C78.5399 75.5471 79.419 75.3626 80.3085 75.355H87.1875V69.73L73.8105 69.7301ZM64.5906 80.3974L56.1797 71.987L54.064 63.9076L62.1462 66.0213L70.5563 74.4314L64.5906 80.3974Z" fill="black"/>
</svg>
